HIERARCHY
ROOT Hips
{
	OFFSET 0.000000 89.005402 0.000000
	CHANNELS 6 Xposition Yposition Zposition Xrotation Yrotation Zrotation
	JOINT Spine
	{
		OFFSET 0.116900 10.681000 0.373400
		CHANNELS 3 Xrotation Yrotation Zrotation
		JOINT Spine1
		{
			OFFSET 0.000000 13.840401 0.053500
			CHANNELS 3 Xrotation Yrotation Zrotation
			JOINT Spine2
			{
				OFFSET 0.000000 14.712700 -0.366200
				CHANNELS 3 Xrotation Yrotation Zrotation
				JOINT Neck
				{
					OFFSET 0.000000 35.415497 -3.314200
					CHANNELS 3 Xrotation Yrotation Zrotation
					JOINT Head
					{
						OFFSET 0.000000 16.899200 1.218300
						CHANNELS 3 Xrotation Yrotation Zrotation
						JOINT HeadTop_End
						{
							OFFSET 0.000000 22.206207 2.192500
							CHANNELS 3 Xrotation Yrotation Zrotation
							End Site
							{
								OFFSET 0.000000 22.314178 0.000000
							}
						}
					}
				}
				JOINT LeftShoulder
				{
					OFFSET 12.896400 26.716293 -4.548400
					CHANNELS 3 Xrotation Yrotation Zrotation
					JOINT LeftArm
					{
						OFFSET 19.027000 -4.857010 -1.718400
						CHANNELS 3 Xrotation Yrotation Zrotation
						JOINT LeftForeArm
						{
							OFFSET 24.179897 0.000000 0.000000
							CHANNELS 3 Xrotation Yrotation Zrotation
							JOINT LeftHand
							{
								OFFSET 27.156403 0.000000 0.000000
								CHANNELS 3 Xrotation Yrotation Zrotation
								JOINT LeftHandIndex1
								{
									OFFSET 16.441200 0.000000 0.000000
									CHANNELS 3 Xrotation Yrotation Zrotation
									JOINT LeftHandIndex2
									{
										OFFSET 4.821899 0.000000 0.000000
										CHANNELS 3 Xrotation Yrotation Zrotation
										JOINT LeftHandIndex3
										{
											OFFSET 6.386497 0.000000 0.000000
											CHANNELS 3 Xrotation Yrotation Zrotation
											JOINT LeftHandIndex4
											{
												OFFSET 5.188988 0.000000 0.000000
												CHANNELS 3 Xrotation Yrotation Zrotation
												End Site
												{
													OFFSET -0.178703 5.185913 0.000177
												}
											}
										}
									}
								}
								JOINT LeftHandThumb1
								{
									OFFSET 6.534897 -5.032593 5.900300
									CHANNELS 3 Xrotation Yrotation Zrotation
									JOINT LeftHandThumb2
									{
										OFFSET 3.818176 -2.204422 2.204423
										CHANNELS 3 Xrotation Yrotation Zrotation
										JOINT LeftHandThumb3
										{
											OFFSET 3.252098 -1.877594 1.877601
											CHANNELS 3 Xrotation Yrotation Zrotation
											JOINT LeftHandThumb4
											{
												OFFSET 5.251778 -3.032120 3.032117
												CHANNELS 3 Xrotation Yrotation Zrotation
												End Site
												{
													OFFSET 0.000023 6.780014 0.000000
												}
											}
										}
									}
								}
							}
						}
					}
				}
				JOINT RightShoulder
				{
					OFFSET -12.896300 26.716293 -4.548400
					CHANNELS 3 Xrotation Yrotation Zrotation
					JOINT RightArm
					{
						OFFSET -19.027000 -4.857010 -1.718400
						CHANNELS 3 Xrotation Yrotation Zrotation
						JOINT RightForeArm
						{
							OFFSET -24.179897 0.000000 0.000000
							CHANNELS 3 Xrotation Yrotation Zrotation
							JOINT RightHand
							{
								OFFSET -27.156403 0.000000 0.000000
								CHANNELS 3 Xrotation Yrotation Zrotation
								JOINT RightHandThumb1
								{
									OFFSET -6.591202 -4.852203 5.988100
									CHANNELS 3 Xrotation Yrotation Zrotation
									JOINT RightHandThumb2
									{
										OFFSET -3.818176 -2.204422 2.204423
										CHANNELS 3 Xrotation Yrotation Zrotation
										JOINT RightHandThumb3
										{
											OFFSET -3.252098 -1.877594 1.877601
											CHANNELS 3 Xrotation Yrotation Zrotation
											JOINT RightHandThumb4
											{
												OFFSET -5.251778 -3.032120 3.032117
												CHANNELS 3 Xrotation Yrotation Zrotation
												End Site
												{
													OFFSET -0.000023 6.780014 0.000000
												}
											}
										}
									}
								}
								JOINT RightHandIndex1
								{
									OFFSET -16.029404 0.000000 0.000000
									CHANNELS 3 Xrotation Yrotation Zrotation
									JOINT RightHandIndex2
									{
										OFFSET -5.213303 0.000000 0.000000
										CHANNELS 3 Xrotation Yrotation Zrotation
										JOINT RightHandIndex3
										{
											OFFSET -6.386528 0.000000 0.000000
											CHANNELS 3 Xrotation Yrotation Zrotation
											JOINT RightHandIndex4
											{
												OFFSET -5.189026 0.000000 0.000000
												CHANNELS 3 Xrotation Yrotation Zrotation
												End Site
												{
													OFFSET 0.236702 5.183624 0.001972
												}
											}
										}
									}
								}
							}
						}
					}
				}
			}
		}
	}
	JOINT LeftUpLeg
	{
		OFFSET 14.073000 -7.904099 -1.463000
		CHANNELS 3 Xrotation Yrotation Zrotation
		JOINT LeftLeg
		{
			OFFSET -0.109806 -34.073280 4.093200
			CHANNELS 3 Xrotation Yrotation Zrotation
			JOINT LeftFoot
			{
				OFFSET 0.109806 -29.899420 -6.319000
				CHANNELS 3 Xrotation Yrotation Zrotation
				JOINT LeftToeBase
				{
					OFFSET 1.551100 -14.988700 20.535801
					CHANNELS 3 Xrotation Yrotation Zrotation
					JOINT LeftToe_End
					{
						OFFSET 0.221200 0.570800 13.248301
						CHANNELS 3 Xrotation Yrotation Zrotation
						End Site
						{
							OFFSET 0.000000 13.262435 0.000000
						}
					}
				}
			}
		}
	}
	JOINT RightUpLeg
	{
		OFFSET -13.839300 -7.904099 -1.463000
		CHANNELS 3 Xrotation Yrotation Zrotation
		JOINT RightLeg
		{
			OFFSET 0.109694 -34.073219 4.093300
			CHANNELS 3 Xrotation Yrotation Zrotation
			JOINT RightFoot
			{
				OFFSET -0.109694 -29.899384 -6.319200
				CHANNELS 3 Xrotation Yrotation Zrotation
				JOINT RightToeBase
				{
					OFFSET -1.551100 -14.988700 20.535801
					CHANNELS 3 Xrotation Yrotation Zrotation
					JOINT RightToe_End
					{
						OFFSET -0.221200 0.570900 13.248299
						CHANNELS 3 Xrotation Yrotation Zrotation
						End Site
						{
							OFFSET 0.000000 13.262440 0.000000
						}
					}
				}
			}
		}
	}
}
MOTION
Frames: 4
Frame Time: 0.033333
0.093182 50.684021 9.218018 0.153819 0.070285 0.867996 10.430311 0.123103 -1.493835 -0.199259 0.213327 -0.355466 -0.199585 0.248527 -0.300883 -1.001775 -1.283450 0.469654 -8.883483 -4.326206 -5.321249 -0.000000 0.000001 0.000000 0.823520 -15.262030 -7.868752 4.746726 -21.216434 -54.862221 0.000022 -62.197499 0.000010 31.062949 4.315268 41.770237 -0.235304 2.798397 -26.913107 0.396828 2.121288 -21.189301 0.083118 0.984449 -9.653128 0.000001 -0.000002 -0.000003 6.610622 1.798228 20.801497 2.714914 20.170264 -24.389018 -5.541138 29.851123 5.070858 0.000000 -0.000002 -0.000002 3.171094 -4.378726 8.782887 -3.950244 37.253382 63.733622 -0.000001 55.137935 0.000014 43.537299 4.741052 -36.277935 -9.383509 -1.613345 -17.604714 3.546255 -24.346582 34.653453 -6.613329 -37.496444 -11.183507 0.000003 -0.000002 0.000000 2.957829 1.012869 13.529999 0.472465 -2.045717 26.006746 0.059752 -0.744397 9.177788 0.000001 -0.000001 0.000003 -88.313649 -8.311238 14.594784 82.363141 2.942091 -0.545846 7.617289 -6.785175 -8.250281 -0.103117 0.000010 0.000001 0.000000 -0.000000 -0.000000 -89.574174 9.728780 -10.624228 82.904167 -2.598414 -1.090442 8.611672 -0.179146 9.330902 -0.191638 -0.000007 0.000003 -0.000000 0.000001 0.000000 
0.072940 50.681374 9.220091 0.154438 0.048990 0.983775 10.509798 0.192496 -1.474112 -0.045048 0.323266 -0.327281 -0.044963 0.358316 -0.272488 -1.158257 -1.306336 0.557304 -9.410676 -4.304317 -5.190885 0.000000 -0.000000 -0.000001 0.812998 -14.991046 -7.733325 4.130446 -21.476241 -55.244329 -0.000034 -62.116978 -0.000016 31.561440 4.168573 41.572162 -0.306437 2.914267 -27.060958 0.404345 2.140570 -21.391594 0.082447 0.980449 -9.613433 -0.000003 -0.000001 -0.000003 6.735943 1.904059 20.683380 2.734503 20.172479 -24.439286 -5.465605 30.013818 5.053230 0.000000 0.000003 0.000002 3.169978 -4.507049 8.687892 -3.906846 37.043521 63.668059 -0.000010 55.662808 0.000023 43.690504 4.481107 -36.390575 -9.377627 -1.451552 -17.711924 3.821070 -24.421787 36.396463 -6.655863 -37.290316 -11.152021 0.000003 0.000001 -0.000000 3.050253 1.081750 13.446097 0.461502 -2.023087 25.697934 0.060148 -0.746939 9.209283 0.000000 -0.000002 -0.000000 -88.248947 -8.260566 14.565100 82.335335 3.001541 -0.547700 7.597589 -6.784556 -8.320197 -0.103117 0.000010 0.000001 0.000000 -0.000000 -0.000000 -89.647531 9.775846 -10.647180 82.944328 -2.542996 -1.093162 8.621983 -0.177255 9.253604 -0.191638 -0.000008 0.000003 -0.000000 -0.000000 0.000000 
0.053342 50.674973 9.225684 0.155676 0.025539 1.106719 10.613982 0.308427 -1.442207 0.156367 0.540552 -0.216869 0.157533 0.574392 -0.161412 -1.431643 -1.353731 0.653892 -10.181418 -4.483766 -4.869100 -0.000000 0.000000 0.000000 0.789619 -14.429118 -7.636389 3.230367 -22.399640 -55.688858 -0.000108 -61.673500 -0.000126 32.002325 3.766369 41.433516 -0.305273 3.065950 -27.352032 0.418631 2.176664 -21.771030 0.081185 0.972964 -9.539441 -0.000000 -0.000002 0.000002 6.969201 2.106396 20.460339 2.771891 20.175897 -24.532870 -5.331023 30.320668 5.033216 0.000001 -0.000000 -0.000003 3.139739 -4.877444 8.264527 -3.936035 36.935744 63.784104 -0.000006 56.276408 0.000017 43.741850 4.095362 -36.580366 -9.183388 -1.083410 -17.971040 4.084646 -24.457767 38.105977 -6.706169 -36.839288 -11.013171 0.000002 -0.000001 0.000003 3.173919 1.212901 13.331605 0.438695 -1.975034 25.044193 0.061348 -0.754195 9.299535 -0.000001 0.000001 0.000000 -88.188664 -8.207188 14.531748 82.315685 3.066505 -0.546149 7.573213 -6.792106 -8.390763 -0.103117 0.000012 0.000001 -0.000000 0.000001 0.000000 -89.731535 9.827527 -10.670333 82.992529 -2.481320 -1.096108 8.633836 -0.181865 9.173277 -0.191638 -0.000008 0.000003 -0.000000 -0.000001 -0.000000 
0.035370 50.664062 9.235037 0.158444 0.013166 1.236677 10.794153 0.491063 -1.369246 0.504615 0.879218 0.016363 0.507463 0.910656 0.072972 -1.933499 -1.436528 0.735631 -11.574355 -4.934440 -4.288718 0.000000 0.000001 0.000000 0.774985 -13.846794 -7.357271 1.760474 -23.872872 -56.529893 0.000006 -60.761998 -0.000012 32.337671 2.913577 41.549086 -0.242383 3.219663 -27.716525 0.436109 2.219865 -22.226197 0.079610 0.963582 -9.446493 0.000002 0.000001 0.000001 7.259263 2.349853 20.185507 2.816626 20.179627 -24.644178 -5.166782 30.693624 5.007098 0.000000 -0.000001 0.000001 3.046777 -5.490407 7.329249 -3.857093 37.455367 63.549678 0.000046 57.081042 -0.000046 43.045427 3.212741 -36.971151 -8.996200 -0.735087 -18.221480 4.336507 -24.476085 39.801913 -6.752180 -36.410953 -10.876016 0.000002 0.000001 -0.000000 3.293688 1.333222 13.285645 0.416908 -1.927756 24.404524 0.062520 -0.761315 9.388327 -0.000001 -0.000001 0.000001 -88.136693 -8.146759 14.486474 82.301874 3.130165 -0.545204 7.548076 -6.796511 -8.459180 -0.103117 0.000011 0.000001 0.000000 0.000000 0.000000 -89.822752 9.892306 -10.705561 83.057129 -2.417600 -1.098523 8.637565 -0.184533 9.100605 -0.191638 -0.000009 0.000003 0.000000 -0.000000 0.000000 
